<svg id="Слой_1" data-name="Слой 1" xmlns="http://www.w3.org/2000/svg" xmlns:xlink="http://www.w3.org/1999/xlink" viewBox="0 0 213 48"><defs><style>.cls-1{fill:url(#New_Gradient_Swatch_2);}.cls-2{fill:url(#New_Gradient_Swatch_2-2);}.cls-3{fill:url(#New_Gradient_Swatch_2-3);}.cls-4{fill:url(#New_Gradient_Swatch_2-4);}.cls-5{fill:#a22330;fill-rule:evenodd;}.cls-6{fill:#262424;}</style><linearGradient id="New_Gradient_Swatch_2" x1="25.17" y1="27.06" x2="58.58" y2="27.06" gradientUnits="userSpaceOnUse"><stop offset="0" stop-color="#a22330"/><stop offset="0.99" stop-color="#4c0023"/></linearGradient><linearGradient id="New_Gradient_Swatch_2-2" x1="56.09" y1="32.48" x2="68.38" y2="-0.08" xlink:href="#New_Gradient_Swatch_2"/><linearGradient id="New_Gradient_Swatch_2-3" x1="20.79" y1="3.23" x2="15.82" y2="38.02" xlink:href="#New_Gradient_Swatch_2"/><linearGradient id="New_Gradient_Swatch_2-4" x1="6.95" y1="0.88" x2="2.59" y2="31.44" xlink:href="#New_Gradient_Swatch_2"/></defs><title>Logoimperator</title><path class="cls-1" d="M49.28,38c-.23-.48-.29-.87.45-1.1.72.6,1.38,0,2.09-.62a11.38,11.38,0,0,0,6.77,3.13c-5.29-5.37-2.81-10.27-6.38-17.56A23.69,23.69,0,0,0,50.58,20a8.32,8.32,0,0,1,2.89.49,8.21,8.21,0,0,0-5.7-3,8.3,8.3,0,0,1,3.51-.58A8.21,8.21,0,0,0,43.91,16l-.13,0A8.28,8.28,0,0,1,47.28,14a8.22,8.22,0,0,0-7.93,2.23l-.17,0a8.28,8.28,0,0,1,2.38-3.55,8.23,8.23,0,0,0-6.3,5.54l-.15.11A8.27,8.27,0,0,1,36.27,14,8.23,8.23,0,0,0,32,21.43l0,0c-4,7.61-1.37,12.41-6.76,17.91a11.86,11.86,0,0,0,8-4.49c2.36-2.93,4.58-9.39,8.82-9.39,3.87,0,5.9,5.47,8,8.64a2,2,0,0,1-2.18-.21c-.65-.55-.54-1-.71-1.87,0-.07,0-.14,0-.22a2.92,2.92,0,0,0-.46-1.16.79.79,0,0,0-.19-.26,2.94,2.94,0,0,0-2.43-1,3,3,0,0,1,1,.9,2.94,2.94,0,0,0-3.21-.23,2.93,2.93,0,0,1,2.71,2A13.64,13.64,0,0,0,48,39c1.05,1.06.28,1.46-.71,1.66,1.45,1.4,4.2.69,2.86-1.24A8.25,8.25,0,0,1,49.28,38Z"/><path class="cls-2" d="M73.41,27a8.27,8.27,0,0,1-3.32,3,8.22,8.22,0,0,0,1.16-8.44,8.27,8.27,0,0,1-1.59,3.92,8.22,8.22,0,0,0-2-7.42,8.31,8.31,0,0,1,0,3.55,8.21,8.21,0,0,0-3.81-5.16,8.31,8.31,0,0,1,1,3.21c-.24-.17-.49-.33-.73-.49C49.66,9.12,55.3,1,55.09,1.06a8.22,8.22,0,0,0-6.38,8.55,8.27,8.27,0,0,1,2.93-3.24,8.22,8.22,0,0,0-.78,7.86A8.29,8.29,0,0,1,52,11q.09.41.2.83C54,18.66,63.55,28,60.2,30.31c-2.46,1.7-4.42-3.75-8-8.44,3.58,7.28,1.1,12.19,6.38,17.56h.06c.11,1.24.06,2.41-1.08,2.94-.77.36-1.16.06-2-.13l-.2-.07a2.92,2.92,0,0,0-1.24-.07.8.8,0,0,0-.32.07,2.94,2.94,0,0,0-2,1.77,3,3,0,0,1,1.26-.57,2.94,2.94,0,0,0-1.55,2.81,2.93,2.93,0,0,1,3-1.62,13.64,13.64,0,0,0,7.78-.24c1.4-.51,1.45.36,1.21,1.34,1.88-.73,2.38-3.53.08-3.12a8.31,8.31,0,0,1-1.68.21c-.53,0-.91-.1-.81-.86,1-.47.45-1.53.21-2.55a9.45,9.45,0,0,0,3.6-1.4,8.23,8.23,0,0,0,8-5.46,8.26,8.26,0,0,1-4.45,1.87A8.22,8.22,0,0,0,73.41,27Z"/><path class="cls-3" d="M34.64,10.42A8.21,8.21,0,0,0,26.12,1s4,3.25.76,4.6c-2.54,1-7.09-1.68-8.37-.22a1.15,1.15,0,0,0-.25,1.31s-4-1.49-5.75-.5c-2.43,1.38-1.26,4.89-1.12,4.66A2,2,0,0,1,12.3,10a1,1,0,0,1,.24,0l.85.16c2.71.66,4.73,1.17,8,.34,1.7-.43,2.32,1.84-.69,1.35-1.49-.24-5.17-.39-6.38.49-.74.54-1,.09-1.32-.11l-.87-1.1a3.47,3.47,0,0,0,2.05,5.2,3.68,3.68,0,0,0,2.92-.53c-1.88.1-1.94-1.66-.39-2.05,1.87-.47,4.94.8,3.34,3.53-.53.9-9,5.41-5.7,15.44a1.09,1.09,0,0,1-.89.11l-.29-.08a6.85,6.85,0,0,1-3.45-2.49,1.93,1.93,0,0,1-.34-1.94c.28-.93.68-1.09,1.36-1.74l0,0a3.61,3.61,0,0,0,.45-.46,3.73,3.73,0,0,0-.28-5A3.75,3.75,0,0,1,11,22.74l0-.07a3.73,3.73,0,0,0-2.48-3,3.74,3.74,0,0,1,.87,2.08A3.73,3.73,0,0,0,6,19.53,3.74,3.74,0,0,1,7.5,21.33a3.73,3.73,0,0,0-4.07-.7,3.67,3.67,0,0,1,3,2.22c.69,2.29-.94,6.62-1.39,7.94-.71,2.09-1.76.14-1.76.14a2.11,2.11,0,0,0-.19,1.26,1.52,1.52,0,0,0,2.83.36,5.92,5.92,0,0,0,.38-1.06.5.5,0,0,1,.3-.28c1.41-.31,3.84,5.53,4.77,7.57.56,1.21,1.19,1.76,2.71,1a1.63,1.63,0,0,1-1-1.42c-.06-1.11.91-1.56,1.86-1.74.51-.09,1.26-.1,2-.16a10.2,10.2,0,0,0,5.39,2.82c.12,1.29.12,2.53-1.06,3.08-.77.36-1.16.06-2-.13l-.2-.07a2.92,2.92,0,0,0-1.24-.07.8.8,0,0,0-.32.07,2.94,2.94,0,0,0-2,1.77,3,3,0,0,1,1.26-.57,2.94,2.94,0,0,0-1.55,2.81,2.93,2.93,0,0,1,3-1.62A13.64,13.64,0,0,0,26,44.3c1.4-.51,1.45.36,1.21,1.34,1.88-.73,2.38-3.53.08-3.12a8.31,8.31,0,0,1-1.68.21c-.53,0-.91-.1-.81-.86.94-.45.47-1.47.23-2.47h.17c5.4-5.51,2.74-10.3,6.76-17.91-4,4.82-6.22,10.7-8.8,8.71-2.37-1.83,2.66-9.13,5.92-15.63a8.31,8.31,0,0,1-.19,2.74,8.2,8.2,0,0,0,2.32-6,8.3,8.3,0,0,1,1,3.43,8.22,8.22,0,0,0-.06-7.67A8.28,8.28,0,0,1,34.64,10.42ZM13.39,8.31c-.29,0-.53-.33-.53-.33s.24-.33.53-.33.53.33.53.33S13.68,8.31,13.39,8.31Zm7.45,0a2.55,2.55,0,0,1-1.5-.6,2.55,2.55,0,0,1,1.5-.6,2.56,2.56,0,0,1,1.5.6A2.56,2.56,0,0,1,20.83,8.31Z"/><path class="cls-4" d="M10.46,11.89s-1.11,1-5.09-.92C2.84,9.75.28,12,.28,12a7.61,7.61,0,0,1,3.8.62C9.24,15.62,10.46,11.89,10.46,11.89Z"/><path class="cls-5" d="M208.37,22.87V5.07h-1.55v17.8ZM206.8,34.79h-5.52V30.6h1.34V5.06h-1.34V1h8.91l2.41,2.5V24.61l-2.16,2.09-.22.23H206.8Z"/><path class="cls-5" d="M153,22.84V11.73h-1.55V22.84Zm-1.5,12h-5.58V30.6h1.32V11.74h-1.33V7.53h8.92l2.42,2.58V24.58l-2.16,2.1-.23.22h-3.36Z"/><path class="cls-5" d="M199.55,7.53V34.79H189.6V7.53ZM193.79,30.6h1.58V11.73h-1.58Z"/><path class="cls-5" d="M187.88,7.52c0,.57,0,9.81,0,10.42h-4.32V11.73H182q0,9.44,0,18.88h1.21V34.8h-6.71V30.6h1.2V11.73H176.1v6.21h-4.33V7.52Z"/><path class="cls-5" d="M132.88,34.8V30.6h1.33V11.73h-1.33V7.53h11.4v4.2h-5.77v5.73H143v4.08h-4.53V30.6h5.76v4.2Z"/><path class="cls-5" d="M163,11.73V22.8h1.68V11.73Zm5.91,0V30.6h1.35v4.2h-5.58V26.91H163V34.8h-5.6V30.6h1.34V10.14l2.51-2.62h9v4.2Z"/><path class="cls-5" d="M131.16,30.62v4.19H125.6V11.74h-1.67v.35q0,11.36,0,22.73h-5.57V30.62h1.37l0-18.88h-1.33V7.54h12.81v4.2h-1.33V30.62Z"/><polygon class="cls-5" points="99.66 30.6 99.66 11.73 98.31 11.73 98.31 7.52 103.96 7.52 103.96 8.95 104.16 9.18 107.55 12.55 111.05 9.18 111.25 8.95 111.25 7.52 116.9 7.52 116.9 11.73 115.55 11.73 115.54 30.6 116.9 30.6 116.9 34.8 111.24 34.8 111.24 14.91 110.79 15.38 109.74 16.4 109.74 34.8 105.46 34.8 105.46 16.39 104.44 15.34 103.96 14.85 103.96 34.8 98.31 34.8 98.31 30.6 99.66 30.6"/><path class="cls-5" d="M89.83,1V13.21L91.38,12c0-3,0-8,0-11h5.56V5.19H95.72V30.58h1.34V34.8H91.39V17.48L89.83,18.8v16h-5.6V30.58h1.33V5.21H84.25V1Z"/><path class="cls-6" d="M142.07,46V41.67H140.8v-.58H144v.58h-1.26V46Z"/><path class="cls-6" d="M148.18,43.51c0,2-.67,2.57-1.74,2.57s-1.74-.58-1.74-2.58c0-1.62.54-2.54,1.74-2.54S148.18,41.88,148.18,43.51Zm-2.76.06c0,1.15.22,1.92,1,1.92s1-.77,1-1.92c0-1.47-.29-2-1-2S145.42,42.1,145.42,43.58Z"/><path class="cls-6" d="M150.06,41.64h0a1.16,1.16,0,0,1,1-.67c1.23,0,1.59,1.12,1.59,2.48s-.33,2.64-1.55,2.64a1.18,1.18,0,0,1-1-.63v2.19h-.69V41.09h.69Zm0,1.88c0,.93.05,2,.93,2,.72,0,.95-.75.95-2.06,0-.64-.07-1.89-1-1.89S150.06,42.67,150.06,43.51Z"/><path class="cls-6" d="M156.4,41.09v.58h-1.88V46h-.69V41.09Z"/><path class="cls-6" d="M160.55,43.51c0,2-.67,2.57-1.74,2.57s-1.74-.58-1.74-2.58c0-1.62.54-2.54,1.74-2.54S160.55,41.88,160.55,43.51Zm-2.76.06c0,1.15.22,1.92,1,1.92s1-.77,1-1.92c0-1.47-.29-2-1-2S157.8,42.1,157.8,43.58Z"/><path class="cls-6" d="M161.74,41.09h1.58a1.19,1.19,0,0,1,1.31,1.16,1.1,1.1,0,0,1-.76,1.16v0a1.12,1.12,0,0,1,.87,1.21,1.22,1.22,0,0,1-1.2,1.32h-1.8Zm.69,2h.73c.53,0,.77-.21.77-.74s-.24-.69-.74-.69h-.76Zm0,2.27h.81c.64,0,.8-.27.8-.85a.73.73,0,0,0-.81-.84h-.8Z"/><path class="cls-6" d="M166.62,43.1h1a1.36,1.36,0,0,1,1.35,1.47A1.3,1.3,0,0,1,167.59,46h-1.67V41.09h.69Zm0,2.27h.73c.66,0,.87-.28.87-.83s-.23-.86-.83-.86h-.77Zm3.81.58h-.69V41.09h.69Z"/><path class="cls-6" d="M172.48,41.09v3.7a3.18,3.18,0,0,1-.07.58h0a4.21,4.21,0,0,1,.15-.58l1.61-3.7H175V46h-.69V42.27a4.89,4.89,0,0,1,.07-.6h0a4.25,4.25,0,0,1-.14.6L172.63,46h-.84V41.09Zm.19-1.57a.7.7,0,0,0,.76.61.66.66,0,0,0,.74-.61h.36a1,1,0,0,1-1.14,1.08,1,1,0,0,1-1.07-1.08Z"/><path class="cls-6" d="M179.35,43.36,181,41.09h.82L180.35,43l1.55,3h-.81l-1.21-2.42-.53.69V46h-.69V41.09h.69Z"/><path class="cls-6" d="M185.91,43.51c0,2-.67,2.57-1.74,2.57s-1.74-.58-1.74-2.58c0-1.62.54-2.54,1.74-2.54S185.91,41.88,185.91,43.51Zm-2.76.06c0,1.15.22,1.92,1,1.92s1-.77,1-1.92c0-1.47-.29-2-1-2S183.15,42.1,183.15,43.58Z"/><path class="cls-6" d="M188.17,41.09l.88,3.2c.06.23.12.66.17,1h0c.05-.33.09-.72.16-1l.88-3.2h1.07V46h-.66V41.67h0L189.45,46H189l-1.22-4.28h0V46h-.66V41.09Z"/><path class="cls-6" d="M195.83,41.09V46h-.69V41.67h-1.72V46h-.69V41.09Z"/><path class="cls-6" d="M200.33,41.09V46h-.69V41.67h-1.51V43.6c0,1.4-.18,2.39-1.06,2.39a1,1,0,0,1-.42-.06v-.55a1.5,1.5,0,0,0,.3,0c.37,0,.51-.3.51-1.87V41.09Z"/><path class="cls-6" d="M204.59,44.33c0,1-.45,1.75-1.47,1.75s-1.61-.61-1.61-2.57c0-1.22.27-2.55,1.56-2.55s1.52,1.44,1.52,2.72h-2.36c0,1.11.06,1.81.87,1.81s.79-.61.79-1.16Zm-.72-1.23c0-.74-.1-1.56-.79-1.56s-.85.91-.85,1.56Z"/><path class="cls-6" d="M206.47,43.36l1.68-2.27H209L207.47,43,209,46h-.81L207,43.53l-.53.69V46h-.69V41.09h.69Z"/><path class="cls-6" d="M210.28,43.59c0,.79,0,1.91.93,1.91s.82-.65.86-1.24h.66c0,.92-.38,1.82-1.47,1.82-1.48,0-1.69-1.24-1.69-2.49s.29-2.62,1.68-2.62a1.48,1.48,0,0,1,1.47,1.65h-.66c0-.53-.17-1.07-.83-1.07C210.4,41.55,210.28,42.57,210.28,43.59Z"/><path class="cls-6" d="M138.68,43.24v.62h-4.37v-.62Z"/><path class="cls-6" d="M85,43.56c0,.79,0,1.91.93,1.91s.82-.65.86-1.24h.65c0,.92-.38,1.82-1.47,1.82-1.48,0-1.69-1.24-1.69-2.49s.29-2.62,1.68-2.62a1.48,1.48,0,0,1,1.47,1.65h-.65c0-.53-.17-1.07-.83-1.07C85.1,41.52,85,42.55,85,43.56Z"/><path class="cls-6" d="M88.39,42.38a1.25,1.25,0,0,1,1.4-1.44,1.19,1.19,0,0,1,1.36,1.24V45c0,.23.08.39.26.39l.15,0v.51a.67.67,0,0,1-.28.05c-.42,0-.64-.05-.75-.71h0a1.22,1.22,0,0,1-1.07.78c-.85,0-1.25-.46-1.25-1.34s.36-1.17,1.21-1.5c.32-.12.79-.33.86-.36s.18-.33.18-.57c0-.56-.18-.75-.74-.75s-.71.29-.71.86Zm.53,2.31c0,.43.18.75.65.75.72,0,.89-.48.89-1V43.28C89.74,43.7,88.92,43.75,88.92,44.69Z"/><path class="cls-6" d="M92.74,41.07l1.15,3.88h0L95,41.07h.72L94.18,46c-.27.89-.52,1.63-1.49,1.63a1.54,1.54,0,0,1-.49-.08v-.61a1.25,1.25,0,0,0,.51.11c.49,0,.69-.44.86-1L92,41.07Z"/><path class="cls-6" d="M96.73,42.67v-1.6h2.66v4.28h.46v1.9h-.64V45.93H96.38v1.32h-.64v-1.9h.42A5.13,5.13,0,0,0,96.73,42.67Zm2-1H97.4V43a4.65,4.65,0,0,1-.53,2.3H98.7Z"/><path class="cls-6" d="M100.69,42.38a1.25,1.25,0,0,1,1.4-1.44,1.19,1.19,0,0,1,1.36,1.24V45c0,.23.08.39.26.39l.15,0v.51a.67.67,0,0,1-.28.05c-.42,0-.64-.05-.75-.71h0a1.22,1.22,0,0,1-1.07.78c-.85,0-1.25-.46-1.25-1.34s.36-1.17,1.21-1.5c.32-.12.79-.33.86-.36s.18-.33.18-.57c0-.56-.18-.75-.74-.75s-.71.29-.71.86Zm.53,2.31c0,.43.18.75.65.75.72,0,.89-.48.89-1V43.28C102,43.7,101.21,43.75,101.21,44.69Z"/><path class="cls-6" d="M107.78,43.33l1.68-2.27h.82L108.78,43l1.55,3h-.81l-1.21-2.42-.53.69v1.73h-.69V41.07h.69Z"/><path class="cls-6" d="M113.94,44.31c0,1-.45,1.75-1.47,1.75s-1.61-.61-1.61-2.57c0-1.22.27-2.55,1.56-2.55s1.52,1.44,1.52,2.72h-2.36c0,1.11.06,1.81.87,1.81s.79-.61.79-1.16Zm-.72-1.23c0-.74-.1-1.56-.79-1.56s-.85.91-.85,1.56Z"/><path class="cls-6" d="M115.82,45.35h1.58V41.07h.69v4.28h1.58V41.07h.69v4.86h-5.24V41.07h.69Z"/><path class="cls-6" d="M124.63,44.31c0,1-.45,1.75-1.47,1.75s-1.61-.61-1.61-2.57c0-1.22.27-2.55,1.56-2.55s1.52,1.44,1.52,2.72h-2.36c0,1.11.06,1.81.87,1.81s.79-.61.79-1.16Zm-.72-1.23c0-.74-.1-1.56-.79-1.56s-.85.91-.85,1.56Z"/><path class="cls-6" d="M126.51,43.08h1.72v-2h.69v4.86h-.69V43.66h-1.72v2.27h-.69V41.07h.69Z"/><path class="cls-6" d="M130.28,40.25v-.87H131v.87Zm.69,5.68h-.69V41.07H131Z"/></svg>