<svg height="464pt" viewBox="0 0 464.15307 464" width="464pt" xmlns="http://www.w3.org/2000/svg"><path d="m402.792969 288.078125c-23.550781 0-42.640625 19.089844-42.640625 42.636719-.988282-22.851563-19.804688-40.871094-42.679688-40.871094s-41.691406 18.019531-42.679687 40.871094c0 51.203125 85.359375 85.363281 85.359375 85.363281s85.359375-34.160156 85.359375-85.363281c-.042969-23.5625-19.15625-42.636719-42.71875-42.636719zm0 0" fill="#e76b93"/><path d="m392.152344 399.4375c-23.429688-11.492188-45-26.429688-64-44.320312 11.351562-10.613282 21.589844-22.351563 30.5625-35.039063-5.148438-20.332031-24.316406-33.902344-45.203125-32-22.992188 2.476563-39.972657 22.59375-38.558594 45.679687 3.359375 49.597657 85.199219 82.320313 85.199219 82.320313 11.070312-4.671875 21.769531-10.179687 32-16.480469zm0 0" fill="#ce5983"/><path d="m288.152344 104.078125c-53.019532 0-96 42.980469-96 96 0-53.019531-42.980469-96-96-96-53.019532 0-96 42.980469-96 96 0 115.199219 192 192 192 192s192-76.800781 192-192c0-53.019531-42.980469-96-96-96zm0 0" fill="#e76b93"/><path d="m26.152344 134.554688c-16.710938 17.722656-26.011719 41.164062-26 65.523437 0 115.199219 192 192 192 192 22.84375-9.625 44.980468-20.855469 66.242187-33.601563-58.242187-27.039062-213.601562-109.519531-232.242187-223.921874zm0 0" fill="#ce5983"/><path d="m331.53125 160.863281c-18.746094-18.746093-44.070312-23.8125-56.570312-11.3125-12.496094 12.496094-7.429688 37.820313 11.316406 56.566407 18.746094 18.746093 44.070312 23.8125 56.566406 11.3125 12.496094-12.496094 7.433594-37.820313-11.3125-56.566407zm0 0" fill="#f1a6be"/><path d="m355.273438 131.515625-87.28125 53.761719c-3.027344 1.875-4.453126 5.53125-3.488282 8.964844.964844 3.429687 4.085938 5.808593 7.648438 5.835937 1.472656-.011719 2.910156-.425781 4.160156-1.203125l89.519531-54.796875c-3.132812-4.496094-6.667969-8.699219-10.558593-12.5625zm0 0" fill="#ce5983"/><path d="m278.875 197.355469 54.878906-33.839844c-.726562-.917969-1.503906-1.800781-2.320312-2.640625-3.140625-2.996094-6.570313-5.675781-10.242188-8l-50.078125 30.800781c1.984375 4.878907 4.59375 9.476563 7.761719 13.679688zm0 0" fill="#e76b93"/><path d="m398.394531 54.476562-131.921875 131.921876c-1.515625 1.5-2.367187 3.546874-2.367187 5.679687s.851562 4.175781 2.367187 5.679687c1.503906 1.511719 3.546875 2.363282 5.679688 2.363282 2.132812 0 4.179687-.851563 5.679687-2.363282l131.921875-131.921874zm0 0" fill="#7798bf"/><path d="m84.472656 368.078125-46.960937 47.359375c-3.101563 3.121094-3.101563 8.160156 0 11.277344 3.121093 3.101562 8.160156 3.101562 11.28125 0l47.359375-46.957032c3.226562-3.226562 3.226562-8.457031 0-11.679687-3.226563-3.226563-8.453125-3.226563-11.679688 0zm0 0" fill="#7798bf"/><path d="m77.113281 421.117188c-4.503906-4.519532-10.621093-7.058594-17-7.058594-6.378906 0-12.496093 2.539062-17 7.058594 9.386719-9.367188 9.40625-24.570313.039063-33.960938-9.367188-9.386719-24.570313-9.40625-33.960938-.039062-20.316406 20.398437 0 67.917968 0 67.917968s47.523438 20.320313 67.921875 0c9.359375-9.367187 9.359375-24.546875 0-33.917968zm0 0" fill="#e76b93"/><path d="m8.152344 388.15625c-18.800782 20.878906.800781 66.878906.800781 66.878906s46 19.601563 66.878906.800782c-36.460937-2.128907-65.550781-31.21875-67.679687-67.679688zm0 0" fill="#ce5983"/><path d="m430.234375 33.996094-11.359375-33.917969-45.203125 45.277344 11.28125 33.921875 33.921875 11.277344 45.277344-45.199219zm0 0" fill="#f8b14e"/><path d="m410.554688 53.675781 19.679687-19.679687-11.359375-33.917969-20.800781 20.796875c-.445313 12.171875 4.054687 24.003906 12.480469 32.800781zm0 0" fill="#f8cb8d"/><path d="m430.234375 33.996094-19.679687 19.679687c8.792968 8.425781 20.628906 12.925781 32.796874 12.480469l20.800782-20.800781zm0 0" fill="#f8cb8d"/><path d="m447.113281 62.398438c-.847656-.894532-1.886719-1.578126-3.039062-2l-21.679688-7.28125 16-16-8.480469-2.878907-2.5625-8.722656-16 16-7.277343-21.679687c-.398438-1.167969-1.085938-2.214844-2-3.039063l-12.160157 12.238281 8.480469 25.441406-16 16 2.796875 8.480469 8.480469 2.800781 16-16 25.441406 8.480469zm0 0" fill="#7798bf"/></svg>